<svg width="24" height="23" viewBox="0 0 24 23" fill="none" xmlns="http://www.w3.org/2000/svg">
<path fill-rule="evenodd" clip-rule="evenodd" d="M1.95886 11.3769C1.95886 7.15207 1.95886 5.03967 2.9656 3.51817C3.41515 2.83875 3.99701 2.25689 4.67644 1.80733C6.19794 0.800598 8.31034 0.800598 12.5351 0.800598C16.7599 0.800598 18.8723 0.800598 20.3938 1.80733C21.0733 2.25689 21.6551 2.83875 22.1047 3.51817C23.1114 5.03967 23.1114 7.15207 23.1114 11.3769C23.1114 15.6017 23.1114 17.7141 22.1047 19.2356C21.6551 19.915 21.0733 20.4969 20.3938 20.9464C18.8723 21.9531 16.7599 21.9531 12.5351 21.9531C8.31034 21.9531 6.19794 21.9531 4.67644 20.9464C3.99701 20.4969 3.41515 19.915 2.9656 19.2356C1.95886 17.7141 1.95886 15.6017 1.95886 11.3769ZM18.0104 11.3774C18.0104 14.4014 15.559 16.8529 12.5349 16.8529C9.51092 16.8529 7.05947 14.4014 7.05947 11.3774C7.05947 8.35339 9.51092 5.90195 12.5349 5.90195C15.559 5.90195 18.0104 8.35339 18.0104 11.3774ZM12.5349 15.0004C14.5358 15.0004 16.1579 13.3783 16.1579 11.3774C16.1579 9.3765 14.5358 7.75444 12.5349 7.75444C10.534 7.75444 8.91197 9.3765 8.91197 11.3774C8.91197 13.3783 10.534 15.0004 12.5349 15.0004ZM18.2267 6.91321C18.9372 6.91321 19.5132 6.33719 19.5132 5.62664C19.5132 4.91608 18.9372 4.34006 18.2267 4.34006C17.5161 4.34006 16.9401 4.91608 16.9401 5.62664C16.9401 6.33719 17.5161 6.91321 18.2267 6.91321Z" fill="white"/>
</svg>
