<svg width="23" height="23" viewBox="0 0 23 23" fill="none" xmlns="http://www.w3.org/2000/svg">
<path d="M1.13971 4.23171C1.13971 3.5534 1.37792 2.99381 1.85432 2.55294C2.33072 2.11204 2.95007 1.8916 3.71232 1.8916C4.46096 1.8916 5.06667 2.10864 5.52947 2.54276C6.00588 2.99043 6.24409 3.57375 6.24409 4.29276C6.24409 4.94392 6.0127 5.48654 5.54989 5.92066C5.07349 6.36833 4.44735 6.59216 3.67148 6.59216H3.65106C2.90241 6.59216 2.29671 6.36833 1.8339 5.92066C1.3711 5.47298 1.13971 4.90999 1.13971 4.23171ZM1.40514 22.0369V8.4439H5.93782V22.0369H1.40514ZM8.44918 22.0369H12.9819V14.4468C12.9819 13.972 13.0363 13.6057 13.1452 13.348C13.3358 12.8867 13.625 12.4967 14.013 12.1779C14.4009 11.8591 14.8875 11.6997 15.4728 11.6997C16.9973 11.6997 17.7596 12.7239 17.7596 14.7724V22.0369H22.2923V14.2433C22.2923 12.2355 21.8158 10.7128 20.863 9.675C19.9102 8.63721 18.6511 8.11832 17.0858 8.11832C15.3299 8.11832 13.9619 8.87123 12.9819 10.377V10.4177H12.9614L12.9819 10.377V8.4439H8.44918C8.4764 8.878 8.49001 10.2278 8.49001 12.4933C8.49001 14.7588 8.4764 17.94 8.44918 22.0369Z" fill="white"/>
</svg>
