<svg width="24" height="19" viewBox="0 0 24 19" fill="none" xmlns="http://www.w3.org/2000/svg">
<path d="M15.9115 0.799769V0.795959H16.9033L17.2657 0.868339C17.5073 0.915328 17.7267 0.976908 17.9238 1.0531C18.1209 1.12928 18.3116 1.21818 18.496 1.31976C18.6803 1.42134 18.8476 1.52484 18.9976 1.63023C19.1464 1.73436 19.2799 1.84483 19.3982 1.96165C19.5151 2.07974 19.6976 2.11021 19.9455 2.05307C20.1935 1.99593 20.4605 1.91656 20.7466 1.81498C21.0327 1.7134 21.3157 1.59912 21.5954 1.47213C21.8752 1.34515 22.0456 1.26452 22.1066 1.23023C22.1664 1.19469 22.1982 1.17565 22.202 1.17309L22.2058 1.16738L22.2248 1.15786L22.2439 1.14833L22.263 1.13881L22.2821 1.12928L22.2859 1.12357L22.2916 1.11976L22.2973 1.11595L22.3011 1.11024L22.3202 1.10452L22.3393 1.10071L22.3355 1.12928L22.3297 1.15786L22.3202 1.18643L22.3107 1.215L22.3011 1.23404L22.2916 1.25309L22.2821 1.28166C22.2757 1.30071 22.2694 1.3261 22.263 1.35785C22.2566 1.3896 22.1962 1.51657 22.0818 1.73879C21.9673 1.96102 21.8243 2.1864 21.6526 2.41497C21.481 2.64353 21.3271 2.81622 21.1911 2.93305C21.0537 3.05114 20.9628 3.13368 20.9183 3.18067C20.8738 3.22891 20.8198 3.27335 20.7562 3.314L20.6608 3.37685L20.6417 3.38637L20.6227 3.3959L20.6189 3.40161L20.6131 3.40542L20.6074 3.40923L20.6036 3.41495L20.5845 3.42447L20.5654 3.43399L20.5616 3.43971L20.5559 3.44352L20.5502 3.44733L20.5464 3.45304L20.5426 3.45875L20.5368 3.46256L20.5311 3.46637L20.5273 3.47209H20.6227L21.1567 3.3578C21.5128 3.28162 21.8529 3.18956 22.1772 3.08162L22.6921 2.9102L22.7494 2.89115L22.778 2.88162L22.797 2.8721L22.8161 2.86258L22.8352 2.85305L22.8543 2.84353L22.8924 2.83782L22.9306 2.83401V2.8721L22.921 2.87591L22.9115 2.88162L22.9077 2.88734L22.9019 2.89115L22.8962 2.89496L22.8924 2.90067L22.8886 2.90639L22.8829 2.9102L22.8771 2.914L22.8733 2.91972L22.8695 2.92543L22.8638 2.92924L22.8543 2.94829L22.8447 2.96734L22.839 2.97115C22.8365 2.97496 22.7557 3.08288 22.5968 3.29495C22.4378 3.50828 22.352 3.6162 22.3393 3.61875C22.3266 3.62256 22.3088 3.64161 22.2859 3.67589C22.2643 3.71143 22.1295 3.85303 21.8815 4.10064C21.6336 4.34826 21.3907 4.56856 21.1529 4.76158C20.9139 4.95586 20.7931 5.19458 20.7905 5.47775C20.7867 5.75965 20.7721 6.07839 20.7466 6.43392C20.7212 6.78947 20.6735 7.17358 20.6036 7.58628C20.5337 7.99897 20.4256 8.46563 20.2793 8.98624C20.1331 9.50686 19.9551 10.0148 19.7453 10.51C19.5355 11.0052 19.3161 11.4497 19.0872 11.8433C18.8584 12.237 18.6486 12.5703 18.4578 12.8433C18.2671 13.1163 18.0732 13.3734 17.8761 13.6147C17.679 13.856 17.4298 14.1277 17.1284 14.4299C16.8258 14.7309 16.6605 14.896 16.6325 14.9251C16.6033 14.9531 16.4787 15.0572 16.2586 15.2375C16.0399 15.4191 15.8047 15.6007 15.5529 15.7823C15.3024 15.9626 15.0723 16.1131 14.8625 16.2337C14.6526 16.3543 14.3996 16.4921 14.1033 16.647C13.8083 16.8032 13.4892 16.948 13.1458 17.0813C12.8025 17.2146 12.4401 17.3384 12.0586 17.4527C11.6772 17.567 11.3084 17.6559 10.9524 17.7194C10.5964 17.7829 10.1926 17.8368 9.74121 17.8813L9.0641 17.9479V17.9575H7.82432V17.9479L7.6622 17.9384C7.55413 17.9321 7.46511 17.9257 7.39517 17.9194C7.32525 17.913 7.06138 17.8781 6.60362 17.8146C6.14585 17.7511 5.78664 17.6876 5.52596 17.6241C5.2653 17.5606 4.87746 17.44 4.36248 17.2622C3.84749 17.0845 3.40689 16.9048 3.04068 16.7232C2.67575 16.5429 2.44687 16.4286 2.35404 16.3804C2.26248 16.3334 2.15949 16.275 2.04504 16.2051L1.87338 16.1004L1.86959 16.0946L1.86385 16.0908L1.85812 16.087L1.85431 16.0813L1.83524 16.0718L1.81616 16.0623L1.81237 16.0566L1.80663 16.0527L1.8009 16.0489L1.79709 16.0432L1.79329 16.0375L1.78755 16.0337H1.77802V15.9956L1.79709 15.9994L1.81616 16.0051L1.90199 16.0146C1.95921 16.021 2.11499 16.0305 2.36929 16.0432C2.62362 16.0559 2.89382 16.0559 3.17992 16.0432C3.46602 16.0305 3.7585 16.0019 4.0573 15.9575C4.35613 15.9131 4.70899 15.8369 5.11588 15.7289C5.5228 15.621 5.89664 15.4928 6.23742 15.3442C6.57693 15.1944 6.81852 15.0826 6.96222 15.009C7.10462 14.9366 7.32206 14.802 7.61451 14.6052L8.05321 14.3099L8.05702 14.3042L8.06274 14.3004L8.06848 14.2966L8.07228 14.2909L8.07609 14.2852L8.08182 14.2814L8.08756 14.2775L8.09135 14.2718L8.11043 14.2661L8.1295 14.2623L8.13331 14.2433L8.13904 14.2242L8.14478 14.2204L8.14857 14.2147L7.99599 14.2052C7.89427 14.1988 7.79571 14.1925 7.70035 14.1861C7.60498 14.1798 7.45557 14.1512 7.25212 14.1004C7.04868 14.0496 6.82933 13.9734 6.59408 13.8718C6.35885 13.7703 6.12996 13.6496 5.90743 13.5099C5.68492 13.3703 5.52406 13.2541 5.42487 13.1614C5.32697 13.0699 5.19981 12.9404 5.0434 12.7728C4.88828 12.6039 4.75349 12.4306 4.63904 12.2528C4.5246 12.0751 4.41525 11.87 4.311 11.6376L4.15267 11.2909L4.14313 11.2624L4.1336 11.2338L4.12787 11.2148L4.12406 11.1957L4.15267 11.1995L4.18128 11.2052L4.39109 11.2338C4.53097 11.2529 4.75032 11.2592 5.04912 11.2529C5.34795 11.2465 5.55457 11.2338 5.66901 11.2148C5.78346 11.1957 5.8534 11.183 5.87882 11.1767L5.91697 11.1671L5.96465 11.1576L6.01234 11.1481L6.01615 11.1424L6.02187 11.1386L6.02762 11.1348L6.03141 11.129L5.99326 11.1195L5.95512 11.11L5.91697 11.1005L5.87882 11.091L5.84068 11.0814C5.81525 11.0751 5.77075 11.0624 5.70716 11.0433C5.64359 11.0243 5.47193 10.9544 5.19218 10.8338C4.91244 10.7132 4.68991 10.5957 4.5246 10.4814C4.35888 10.3668 4.20087 10.2415 4.05158 10.1062C3.90281 9.96908 3.73942 9.79257 3.56139 9.5767C3.38338 9.36084 3.22444 9.11005 3.08455 8.82434C2.94469 8.53863 2.83978 8.26563 2.76984 8.00531C2.70018 7.74653 2.65422 7.48195 2.63253 7.21486L2.59818 6.81487L2.61725 6.81867L2.63632 6.82439L2.6554 6.83391L2.67447 6.84344L2.69354 6.85296L2.71262 6.86248L3.00826 6.99581C3.20536 7.08471 3.45013 7.16089 3.74259 7.22438C4.03506 7.28786 4.20989 7.3228 4.26711 7.32914L4.35294 7.33866H4.5246L4.52081 7.33295L4.51507 7.32914L4.50934 7.32533L4.50553 7.31961L4.50173 7.3139L4.49599 7.31009L4.49027 7.30628L4.48646 7.30057L4.46738 7.29104L4.44831 7.28152L4.44451 7.27581L4.43877 7.272L4.43305 7.26819L4.42924 7.26247L4.41016 7.25295L4.39109 7.24343L4.38729 7.23771C4.38348 7.23516 4.32879 7.19453 4.22324 7.11581C4.11897 7.03581 4.00962 6.93233 3.89518 6.80534C3.78074 6.67835 3.66629 6.54502 3.55185 6.40535C3.4372 6.26536 3.33508 6.11558 3.24668 5.95774C3.15768 5.79902 3.06357 5.5971 2.96439 5.35204C2.86648 5.10824 2.7921 4.86253 2.74123 4.61492C2.69038 4.3673 2.66177 4.12287 2.6554 3.8816C2.64905 3.64033 2.6554 3.43399 2.67447 3.26257C2.69354 3.09114 2.73169 2.89749 2.78891 2.68163C2.84613 2.46577 2.9288 2.2372 3.03687 1.99593L3.19899 1.63403L3.20853 1.60546L3.21807 1.57689L3.22381 1.57308L3.2276 1.56737L3.23142 1.56166L3.23714 1.55785L3.24288 1.56166L3.24668 1.56737L3.25049 1.57308L3.25621 1.57689L3.26195 1.5807L3.26575 1.58642L3.26956 1.59213L3.27529 1.59594L3.28482 1.61499L3.29436 1.63403L3.3001 1.63784L3.3039 1.64356L3.56139 1.92927C3.73305 2.11974 3.93651 2.33244 4.17174 2.56735C4.407 2.80225 4.53733 2.92416 4.56275 2.93305C4.58819 2.9432 4.61997 2.9724 4.65812 3.02067C4.69626 3.06766 4.82343 3.18004 5.03959 3.3578C5.25577 3.53557 5.53869 3.74193 5.88836 3.97684C6.23805 4.21175 6.62588 4.44349 7.05185 4.67206C7.47783 4.90062 7.9356 5.10696 8.42514 5.29109C8.9147 5.47522 9.25802 5.59585 9.45511 5.65299C9.65222 5.71013 9.98917 5.78314 10.466 5.87203C10.9428 5.96092 11.3021 6.01806 11.5437 6.04345C11.7853 6.06884 11.9506 6.08345 12.0396 6.08726L12.1731 6.09107L12.1693 6.0625L12.1636 6.03393L12.1254 5.79584C12.1 5.63712 12.0873 5.4149 12.0873 5.12919C12.0873 4.84348 12.1095 4.58 12.154 4.33873C12.1985 4.09746 12.2653 3.85303 12.3543 3.60542C12.4433 3.3578 12.5304 3.15907 12.6156 3.00924C12.7021 2.86067 12.8152 2.69115 12.9551 2.50068C13.095 2.31021 13.2762 2.11339 13.4987 1.91022C13.7212 1.70704 13.9755 1.52609 14.2616 1.36737C14.5477 1.20865 14.8116 1.08801 15.0532 1.00548C15.2948 0.922947 15.4983 0.868967 15.6635 0.843577C15.8289 0.818188 15.9115 0.803578 15.9115 0.799769Z" fill="white"/>
</svg>
