<svg width="45" height="31" viewBox="0 0 45 31" fill="none" xmlns="http://www.w3.org/2000/svg">
<g clip-path="url(#clip0_157195_14050)">
<path d="M40.6806 0.317383H3.8138C1.88302 0.317383 0.31781 1.88259 0.31781 3.81337V26.6962C0.31781 28.627 1.88302 30.1922 3.8138 30.1922H40.6806C42.6113 30.1922 44.1765 28.627 44.1765 26.6962V3.81337C44.1765 1.88259 42.6113 0.317383 40.6806 0.317383Z" fill="#EFEFEF" stroke="#D9D9D9" stroke-width="0.82397"/>
<path fill-rule="evenodd" clip-rule="evenodd" d="M13.5075 20.6684H10.8121L8.79075 12.957C8.69483 12.6023 8.49111 12.2887 8.19148 12.1409C7.44365 11.7695 6.61962 11.4738 5.7207 11.3248V11.0279H10.0629C10.6622 11.0279 11.1117 11.4738 11.1866 11.9918L12.2354 17.5543L14.9296 11.0279H17.5501L13.5075 20.6684ZM19.0484 20.6684H16.5027L18.5989 11.0279H21.1445L19.0484 20.6684ZM24.438 13.6986C24.513 13.1794 24.9624 12.8825 25.4868 12.8825C26.3109 12.8079 27.2084 12.957 27.9576 13.3272L28.407 11.2515C27.6579 10.9546 26.8339 10.8055 26.0861 10.8055C23.6153 10.8055 21.8174 12.1409 21.8174 13.9942C21.8174 15.4041 23.0909 16.1444 23.9899 16.5903C24.9624 17.035 25.337 17.3319 25.2621 17.7766C25.2621 18.4436 24.513 18.7405 23.7651 18.7405C22.8662 18.7405 21.9673 18.5182 21.1445 18.1467L20.6951 20.2237C21.594 20.5938 22.5666 20.7429 23.4655 20.7429C26.2359 20.8161 27.9576 19.4821 27.9576 17.4797C27.9576 14.9581 24.438 14.8103 24.438 13.6986ZM36.8668 20.6684L34.8454 11.0279H32.6744C32.2249 11.0279 31.7754 11.3248 31.6256 11.7695L27.8826 20.6684H30.5032L31.0263 19.2597H34.2462L34.5458 20.6684H36.8668ZM33.0489 13.6241L33.7967 17.2574H31.7005L33.0489 13.6241Z" fill="#172B85"/>
</g>
<defs>
<clipPath id="clip0_157195_14050">
<rect width="44.4944" height="30.5104" fill="white"/>
</clipPath>
</defs>
</svg>
