<svg width="25" height="19" viewBox="0 0 25 19" fill="none" xmlns="http://www.w3.org/2000/svg">
<path d="M13.5873 17.5787L8.81366 17.4894C7.26806 17.4584 5.71861 17.5204 4.20331 17.1983C1.8982 16.7171 1.73489 14.3575 1.56402 12.3783C1.32856 9.59575 1.41971 6.7627 1.86404 4.00338C2.11488 2.45512 3.10204 1.53125 4.62864 1.43072C9.78205 1.06587 14.9697 1.10911 20.1117 1.27932C20.6548 1.29493 21.2016 1.38021 21.737 1.47729C24.3803 1.95078 24.4448 4.62469 24.6161 6.87562C24.787 9.14978 24.7148 11.4356 24.3882 13.6943C24.1262 15.5644 23.6249 17.1327 21.5092 17.2841C18.8583 17.4821 16.2683 17.6414 13.61 17.5907C13.6102 17.5787 13.5949 17.5787 13.5873 17.5787ZM10.7809 12.844C12.7785 11.6719 14.738 10.5194 16.7242 9.35514C14.7228 8.18304 12.7671 7.03047 10.7809 5.86624V12.844Z" fill="white"/>
</svg>
