<?xml version="1.0" encoding="UTF-8"?>
<svg version="1.1" xmlns="http://www.w3.org/2000/svg" width="293" height="279">
<path d="M0 0 C2.90512738 2.82736106 5.46997207 5.8361663 8 9 C8.92619141 10.10021484 8.92619141 10.10021484 9.87109375 11.22265625 C14.04182517 16.37586944 14.04182517 16.37586944 13.86791992 18.97094727 C13 21 13 21 10.85449219 22.24853516 C9.92797852 22.59190918 9.00146484 22.9352832 8.046875 23.2890625 C7.03496094 23.67320313 6.02304688 24.05734375 4.98046875 24.453125 C3.91441406 24.83984375 2.84835938 25.2265625 1.75 25.625 C0.69941406 26.01945312 -0.35117188 26.41390625 -1.43359375 26.8203125 C-3.3986685 27.55752686 -5.36621466 28.28820984 -7.33691406 29.01025391 C-9.12468986 29.67468763 -10.89459838 30.38913542 -12.64355469 31.14990234 C-15.98878309 32.3567077 -18.50577879 31.57282315 -22 31 C-28.3070184 30.53281345 -33.46114415 30.59147332 -39 34 C-43.85140052 38.57700004 -45.82464668 43.03550996 -46.109375 49.67578125 C-45.96304145 52.78536908 -45.31196962 55.17926533 -44 58 C-43.4121875 59.299375 -43.4121875 59.299375 -42.8125 60.625 C-39.58496484 64.85418401 -36.3324041 66.68281867 -31.15625 67.38671875 C-24.74489614 67.62147792 -19.07441752 67.21693493 -14 63 C-10.6169134 58.9487538 -8.86022721 55.2066384 -8 50 C-8.65226563 50.28875 -9.30453125 50.5775 -9.9765625 50.875 C-19.53391756 54.93476144 -19.53391756 54.93476144 -24 54 C-26.9375 51.875 -26.9375 51.875 -29 49 C-29.07289664 45.42806445 -28.60468361 43.7236435 -26.31225586 40.98022461 C-23.63340838 38.68604955 -21.23374796 37.6352696 -17.94140625 36.37890625 C-16.74966797 35.91806641 -15.55792969 35.45722656 -14.33007812 34.98242188 C-13.07432097 34.50884346 -11.8184612 34.03553701 -10.5625 33.5625 C-9.35400391 33.09779297 -8.14550781 32.63308594 -6.90039062 32.15429688 C-3.27039664 30.76023919 0.36416839 29.37875222 4 28 C11.5540862 25.13000352 18.99959923 22.18974431 26.34375 18.8203125 C29.39047278 17.87941282 30.98870575 18.03372731 34 19 C36.3125 20.6875 36.3125 20.6875 38 23 C38.477663 26.2754034 38.38586134 28.2055796 36.9375 31.1875 C34.22213003 33.72768481 31.47355137 34.6892259 28 36 C28.85271484 37.01707031 28.85271484 37.01707031 29.72265625 38.0546875 C41.22972787 51.92464695 50.41380633 64.24181954 49 83 C47.63695521 89.72502244 44.80878791 95.781552 42 102 C38.00471381 110.89037501 34.04519453 119.78197093 30.375 128.8125 C27.86359303 134.99093025 25.18903906 141.06608967 22.35546875 147.10546875 C20.51096465 151.04430893 18.74915609 155.0180976 17 159 C16.34 159 15.68 159 15 159 C15.03029297 158.45287354 15.06058594 157.90574707 15.09179688 157.34204102 C15.61704581 147.66836974 16.09952013 138.00228251 16.125 128.3125 C16.12951172 127.60101807 16.13402344 126.88953613 16.13867188 126.15649414 C16.17429859 122.45385416 16.17429859 122.45385416 15 119 C10.56148306 117.62809476 6.33622436 116.87406243 1.71484375 116.44140625 C0.3844104 116.31487671 0.3844104 116.31487671 -0.97290039 116.18579102 C-1.9763147 116.09382446 -1.9763147 116.09382446 -3 116 C-3.10546143 117.11221924 -3.21092285 118.22443848 -3.31958008 119.37036133 C-3.72187532 123.59620226 -4.13199633 127.82125661 -4.54418945 132.04614258 C-4.71974464 133.85616603 -4.89332657 135.66638222 -5.06469727 137.47680664 C-5.98397797 147.17373537 -7.02362471 156.82951873 -8.515625 166.45703125 C-8.63392166 167.23206497 -8.75221832 168.00709869 -8.87409973 168.80561829 C-10.14653872 176.67241975 -12.21455908 184.21455908 -18 190 C-21.03797709 191.87696674 -23.0305721 192.22485706 -26.5625 191.8125 C-27.70912109 191.69841797 -27.70912109 191.69841797 -28.87890625 191.58203125 C-31.5040221 190.86169559 -32.38289486 190.18895102 -34 188 C-38.20594751 177.22088071 -35.73167724 165.02145873 -34.5 153.8125 C-33.58062914 144.9709921 -32.69277595 136.14653435 -32.625 127.25 C-32.61146484 126.53690674 -32.59792969 125.82381348 -32.58398438 125.08911133 C-32.60860548 122.35993039 -32.71440676 120.4388829 -34.22265625 118.12109375 C-36.41792159 116.73638792 -38.25881565 116.27145709 -40.8125 115.8125 C-42.05966797 115.57466797 -42.05966797 115.57466797 -43.33203125 115.33203125 C-46.24518086 114.96948701 -49.06702928 114.97851766 -52 115 C-54.09911209 125.83106208 -55.15080212 136.78953798 -56.28710938 147.75390625 C-56.62427106 150.99299713 -56.97199214 154.23084243 -57.3203125 157.46875 C-57.53970619 159.56243265 -57.75847699 161.65618068 -57.9765625 163.75 C-58.07965729 164.70036133 -58.18275208 165.65072266 -58.28897095 166.62988281 C-59.42033602 177.76079238 -60.36051056 188.81071854 -55 199 C-49.44536916 205.77686788 -43.29129513 209.25224811 -34.73828125 210.4609375 C-24.37870625 211.46889615 -16.40113212 210.22091646 -7 206 C-6.01 206 -5.02 206 -4 206 C-4.61030376 211.916009 -6.85113963 217.00500869 -9.125 222.4375 C-9.52807373 223.41090332 -9.93114746 224.38430664 -10.34643555 225.38720703 C-13.23869273 232.3169661 -16.26685035 239.16371876 -19.5234375 245.9296875 C-20.39922976 247.75077934 -21.24879503 249.58551011 -22.0390625 251.4453125 C-24.70175945 257.53478466 -29.19860435 262.22363924 -35.26538086 265.05859375 C-46.33814168 268.87044678 -56.38284772 264.43351777 -66.375 259.875 C-67.68130245 259.29723738 -68.98859451 258.72170697 -70.296875 258.1484375 C-72.24936991 257.29224302 -74.20080107 256.43420465 -76.14816284 255.56639099 C-81.95965802 252.98188183 -87.84803237 250.62130915 -93.76757812 248.29663086 C-96.59270131 247.16338092 -99.36245486 245.96414403 -102.125 244.6875 C-116.64999618 237.97874077 -131.47281559 231.92913397 -146.32226562 225.98193359 C-152.96238444 223.30527328 -159.46532961 220.42171654 -165.95068359 217.39038086 C-170.17585864 215.46384988 -174.47894955 213.78869412 -178.8125 212.125 C-211.86932186 199.09698261 -211.86932186 199.09698261 -220 181.8828125 C-224.41281483 170.29917358 -223.83822636 157.27288315 -219.1171875 145.8671875 C-218.48728124 144.64442829 -217.83401 143.43347596 -217.16015625 142.234375 C-215.57799147 139.18724282 -214.36824747 136.00805014 -213.125 132.8125 C-210.75430141 126.76032572 -208.13436292 120.86977946 -205.37109375 114.984375 C-203.80895305 111.58415992 -202.40743806 108.14360547 -201.04931641 104.65795898 C-197.08996676 94.6287734 -192.74584634 84.75688511 -188.43209839 74.87667847 C-184.73956831 66.41325701 -181.12298403 57.92255877 -177.58203125 49.39453125 C-176.44819539 46.67771524 -175.31339593 43.96130357 -174.17834473 41.24499512 C-173.43966177 39.46919838 -172.7056214 37.69146271 -171.97644043 35.91174316 C-170.94521092 33.39576097 -169.89797911 30.88696615 -168.84765625 28.37890625 C-168.54801468 27.63526321 -168.24837311 26.89162018 -167.93965149 26.1254425 C-165.62772201 20.6669076 -162.5391737 14.76551063 -157.03260803 12.01856995 C-151.57604943 10.11533335 -147.12155824 11.79488465 -142 14 C-142 14.66 -142 15.32 -142 16 C-140.515 16.495 -140.515 16.495 -139 17 C-135.93034466 21.76384384 -136.10808169 26.55389275 -137 32 C-139.1575356 38.84254967 -142.30196682 45.34727437 -145.25 51.875 C-146.07793291 53.74762367 -146.90359956 55.62125088 -147.72705078 57.49584961 C-148.96692292 60.31747476 -150.20820649 63.13837027 -151.45718384 65.95597839 C-155.06773113 74.10324513 -158.50334641 82.3140292 -161.875 90.5625 C-164.8196377 97.75588714 -167.80274758 104.91516204 -171 112 C-176.73396685 124.80237986 -182.37083916 137.64285971 -187.6875 150.625 C-188.338396 152.17864258 -188.338396 152.17864258 -189.00244141 153.76367188 C-191.14704632 159.07312214 -192.66634168 163.26037509 -192 169 C-190.68407862 172.04739688 -189.35508251 173.6866919 -186.875 175.875 C-182.84020472 177.45383294 -179.06111743 177.62027459 -175 176 C-169.55211991 170.89315895 -167.24213262 164.23413137 -164.4375 157.4375 C-163.9186855 156.20202288 -163.3989741 154.96692205 -162.87841797 153.73217773 C-161.23689302 149.82777928 -159.61660397 145.91477057 -158 142 C-157.73088806 141.34906372 -157.46177612 140.69812744 -157.18450928 140.02746582 C-156.3765558 138.0731452 -155.56907393 136.11863035 -154.76171875 134.1640625 C-154.49739548 133.52443069 -154.2330722 132.88479889 -153.96073914 132.2257843 C-152.69639226 129.16449183 -151.4368451 126.10147742 -150.18530273 123.03491211 C-147.89447076 117.44662799 -145.52794604 111.9203494 -142.96875 106.44921875 C-140.02331894 100.14050754 -137.41452374 93.73099275 -134.875 87.25 C-132.05988849 80.09456177 -129.1760967 73.002948 -126 66 C-125.01820862 63.77198809 -124.03906843 61.54280614 -123.0625 59.3125 C-122.63904297 58.3534375 -122.63904297 58.3534375 -122.20703125 57.375 C-120.33555957 53.11816892 -118.51192433 48.8441709 -116.72618103 44.55058289 C-115.60922007 41.87102268 -114.47983123 39.1967731 -113.34957886 36.52279663 C-112.78912166 35.18838143 -112.234082 33.85167616 -111.68484497 32.51260376 C-107.69555401 22.79651732 -103.556684 14.04278848 -94.0625 8.6875 C-93.29035156 8.23761719 -92.51820313 7.78773437 -91.72265625 7.32421875 C-83.88740832 3.51338798 -76.67020404 2.17993703 -68.05859375 1.17578125 C-66.19787987 0.94909004 -66.19787987 0.94909004 -64.29957581 0.71781921 C-61.01335579 0.32070318 -57.72617089 -0.06678655 -54.43841553 -0.45092773 C-51.13907878 -0.84101495 -47.84227588 -1.25174742 -44.54492188 -1.65820312 C-7.42909425 -6.14423981 -7.42909425 -6.14423981 0 0 Z " fill="#FD924D" transform="translate(233,10)"/>
<path d="M0 0 C0.66 0.33 1.32 0.66 2 1 C2 7.6 2 14.2 2 21 C3.98 20.67 5.96 20.34 8 20 C8 20.99 8 21.98 8 23 C9.175625 22.7525 9.175625 22.7525 10.375 22.5 C13.60382611 21.8849855 16.71726512 22 20 22 C18.09386779 25.6216512 16.85388063 27.5400919 13 29 C10.74609375 29.08203125 10.74609375 29.08203125 8.4375 28.8125 C7.67308594 28.73644531 6.90867188 28.66039062 6.12109375 28.58203125 C3.4959779 27.86169559 2.61710514 27.18895102 1 25 C-0.80451216 20.73151942 -1.24787802 17.11068488 -1.1875 12.5 C-1.18105469 11.4171875 -1.17460937 10.334375 -1.16796875 9.21875 C-1.00395535 6.07579556 -0.58178555 3.09044483 0 0 Z " fill="#E89358" transform="translate(198,173)"/>
<path d="M0 0 C0.66 0 1.32 0 2 0 C1.67 2.97 1.34 5.94 1 9 C0.34 9 -0.32 9 -1 9 C-1.33 11.64 -1.66 14.28 -2 17 C-2.66 17 -3.32 17 -4 17 C-6.34513407 21.58367113 -8.37216705 26.11650114 -10 31 C-10.66 31 -11.32 31 -12 31 C-11.979375 31.763125 -11.95875 32.52625 -11.9375 33.3125 C-12 36 -12 36 -13 39 C-13.34820041 40.66362417 -13.68404492 42.32995171 -14 44 C-14.66 44 -15.32 44 -16 44 C-16 44.99 -16 45.98 -16 47 C-17.98 47.495 -17.98 47.495 -20 48 C-19.60554688 47.02546875 -19.60554688 47.02546875 -19.203125 46.03125 C-18.27922708 43.7035072 -17.37521614 41.37163265 -16.484375 39.03125 C-13.38119384 30.90626382 -10.1487533 22.92310844 -6.421875 15.05859375 C-4.11990762 10.10683424 -2.05908451 5.05660134 0 0 Z " fill="#E19453" transform="translate(123,39)"/>
<path d="M0 0 C-0.60060225 6.11992982 -3.03165105 11.44513662 -5.375 17.0625 C-5.77460938 18.04283203 -6.17421875 19.02316406 -6.5859375 20.03320312 C-8.46369505 24.5824414 -10.38976458 28.81491318 -13 33 C-14.60031344 29.79937313 -13.03173691 27.27728194 -12 24 C-11.34 24 -10.68 24 -10 24 C-9.896875 22.824375 -9.79375 21.64875 -9.6875 20.4375 C-9.17085042 16.17514097 -7.8491639 12.85912466 -6 9 C-9.11910856 7.20724134 -11.67682428 6.65709282 -15.25 6.375 C-16.14203125 6.30023438 -17.0340625 6.22546875 -17.953125 6.1484375 C-18.96632812 6.07496094 -18.96632812 6.07496094 -20 6 C-20 5.67 -20 5.34 -20 5 C-19.35933594 4.89042969 -18.71867188 4.78085938 -18.05859375 4.66796875 C-13.87636601 3.90133088 -9.95022626 3.1353224 -6.0625 1.375 C-3 0 -3 0 0 0 Z M-9 5 C-9 5.66 -9 6.32 -9 7 C-8.34 6.67 -7.68 6.34 -7 6 C-7.66 5.67 -8.32 5.34 -9 5 Z " fill="#EC9557" transform="translate(229,216)"/>
<path d="M0 0 C0 0.66 0 1.32 0 2 C0.99 2.33 1.98 2.66 3 3 C3.6875 5.0625 3.6875 5.0625 4 7 C1.00667261 6.0022242 0.05233685 5.2477975 -2 3 C-2.7425 3.845625 -3.485 4.69125 -4.25 5.5625 C-5.1575 6.366875 -6.065 7.17125 -7 8 C-9.3125 7.8125 -9.3125 7.8125 -11 7 C-10.34 5.68 -9.68 4.36 -9 3 C-10.32 2.67 -11.64 2.34 -13 2 C-13.33 2.66 -13.66 3.32 -14 4 C-14.5775 3.773125 -15.155 3.54625 -15.75 3.3125 C-18.12172477 2.73494807 -18.12172477 2.73494807 -20.25 4.4375 C-21.11625 5.2109375 -21.11625 5.2109375 -22 6 C-20.5019913 2.18688695 -18.37351976 0.27516449 -15 -2 C-9.99591934 -3.89343593 -4.67436933 -2.33718467 0 0 Z " fill="#EB9553" transform="translate(91,24)"/>
<path d="M0 0 C0.33 0 0.66 0 1 0 C1 8.58 1 17.16 1 26 C1.66 26 2.32 26 3 26 C3.20496094 25.31292969 3.40992188 24.62585938 3.62109375 23.91796875 C3.89050781 23.01691406 4.15992188 22.11585938 4.4375 21.1875 C4.70433594 20.29417969 4.97117188 19.40085938 5.24609375 18.48046875 C5.80387873 16.64526945 6.39344575 14.81966274 7 13 C7.66 13 8.32 13 9 13 C9.33 12.01 9.66 11.02 10 10 C11 12 11 12 10.42675781 13.87597656 C10.10545898 14.62331055 9.78416016 15.37064453 9.453125 16.140625 C9.1025 16.96433594 8.751875 17.78804687 8.390625 18.63671875 C8.01421875 19.49910156 7.6378125 20.36148438 7.25 21.25 C6.8890625 22.09691406 6.528125 22.94382813 6.15625 23.81640625 C4.23757338 28.28636663 2.23170666 32.67783394 0 37 C-0.66 37 -1.32 37 -2 37 C-1.44017954 24.65874891 -0.81947379 12.32697815 0 0 Z " fill="#D2905D" transform="translate(250,132)"/>
<path d="M0 0 C1.875 0.5625 1.875 0.5625 4 2 C6.02665998 7.55508957 6.46999769 12.93696771 6.75 18.8125 C6.80542969 19.67037109 6.86085937 20.52824219 6.91796875 21.41210938 C6.96050781 22.23130859 7.00304687 23.05050781 7.046875 23.89453125 C7.08651367 24.63550049 7.12615234 25.37646973 7.16699219 26.13989258 C7 28 7 28 5 30 C5.14659212 33.08731895 5.58359188 36.09111605 6.00390625 39.15234375 C6 42 6 42 4.58984375 43.87890625 C3 45 3 45 2 45 C1.90159707 39.95958327 1.94800862 35.0145696 2.5 30 C2.99184567 24.87599583 3.21324976 19.76947085 3.3125 14.625 C3.34214844 13.8515625 3.37179688 13.078125 3.40234375 12.28125 C3.44484007 8.21576867 3.30125458 6.45333861 0.98046875 2.9609375 C0.32691406 2.31382813 -0.32664063 1.66671875 -1 1 C-0.67 0.67 -0.34 0.34 0 0 Z " fill="#E49163" transform="translate(197,124)"/>
<path d="M0 0 C0 2.33333333 0 4.66666667 0 7 C-0.99 7.33 -1.98 7.66 -3 8 C-4.20882096 10.00016466 -4.20882096 10.00016466 -5 12 C-1.61981469 13.04005702 1.4780279 13.08004482 5 13 C2.67106405 15.14978703 1.22038995 15.96248682 -1.9375 16.5 C-5 16 -5 16 -7.9375 13.875 C-10 11 -10 11 -10.0625 7.9375 C-8.26952116 2.98044085 -5.37346947 0 0 0 Z " fill="#F29546" transform="translate(214,48)"/>
<path d="M0 0 C0.33 0 0.66 0 1 0 C1.30473312 7.87635868 0.4893864 15.54437243 -0.54418945 23.33984375 C-0.8109756 25.36343729 -1.0633407 27.38847141 -1.31445312 29.4140625 C-3.86362968 49.3819527 -3.86362968 49.3819527 -8 57 C-8.97608217 54.07175348 -9.08226668 52.04386724 -9 49 C-8.01 48.505 -8.01 48.505 -7 48 C-7 45.36 -7 42.72 -7 40 C-6.01 40 -5.02 40 -4 40 C-4 35.71 -4 31.42 -4 27 C-3.34 27 -2.68 27 -2 27 C-2.09539062 25.72382813 -2.19078125 24.44765625 -2.2890625 23.1328125 C-2.4015951 21.46357888 -2.51354407 19.79430585 -2.625 18.125 C-2.68945312 17.28324219 -2.75390625 16.44148438 -2.8203125 15.57421875 C-2.871875 14.76855469 -2.9234375 13.96289062 -2.9765625 13.1328125 C-3.02893066 12.38918457 -3.08129883 11.64555664 -3.13525391 10.87939453 C-3 9 -3 9 -1 7 C-0.59952556 4.67724823 -0.2602896 2.34260643 0 0 Z " fill="#E3985D" transform="translate(227,138)"/>
<path d="M0 0 C5.31516142 0.322131 8.48433932 3.3169269 12 7 C13.89473106 9.16156469 15.71033507 11.37592397 17.5 13.625 C18.18678833 14.46853027 18.18678833 14.46853027 18.88745117 15.32910156 C21.9637144 19.32344912 21.9637144 19.32344912 22.12109375 22.2578125 C20.4327882 24.88145109 18.48532881 25.29219394 15.5625 26.25 C14.57378906 26.58515625 13.58507812 26.9203125 12.56640625 27.265625 C10 28 10 28 8 28 C8 27.34 8 26.68 8 26 C11.3 24.35 14.6 22.7 18 21 C17.41207877 16.92413613 17.41207877 16.92413613 14.5625 15.0625 C12 13 12 13 11 10.375 C10.2122589 7.74277291 10.2122589 7.74277291 7.4375 6.875 C6.2309375 6.441875 6.2309375 6.441875 5 6 C4.67 5.01 4.34 4.02 4 3 C2.35 2.67 0.7 2.34 -1 2 C-0.67 1.34 -0.34 0.68 0 0 Z " fill="#E48F56" transform="translate(225,7)"/>
<path d="M0 0 C0.98484375 0.11988281 1.9696875 0.23976562 2.984375 0.36328125 C4.10585937 0.52376953 4.10585937 0.52376953 5.25 0.6875 C-0.01252218 4.89751774 -5.8098528 7.78234346 -12.625 7.5625 C-15.24589786 6.8286486 -17.4238835 6.0831699 -19.75 4.6875 C-17.06953599 3.46214503 -15.16111562 2.67747279 -12.1875 2.75 C-9.66768748 2.94058355 -9.66768748 2.94058355 -7.95703125 1.1640625 C-5.03811867 -0.78876751 -3.43406534 -0.44969903 0 0 Z " fill="#F19455" transform="translate(226.75,34.3125)"/>
<path d="M0 0 C0.99 1.485 0.99 1.485 2 3 C6.04969818 8.46316625 9.64957282 11.8416671 16.08203125 14.2109375 C18 15 18 15 20 17 C12.375 18.25 12.375 18.25 9 16 C9 15.34 9 14.68 9 14 C8.01 14 7.02 14 6 14 C6 13.01 6 12.02 6 11 C4.35 10.67 2.7 10.34 1 10 C0.67 6.7 0.34 3.4 0 0 Z " fill="#E58D56" transform="translate(175,204)"/>
<path d="M0 0 C0.99 0.33 1.98 0.66 3 1 C3.825 0.79375 4.65 0.5875 5.5 0.375 C6.7375 0.189375 6.7375 0.189375 8 0 C9.8125 1.4375 9.8125 1.4375 11 3 C9.66666667 6.33333333 8.33333333 9.66666667 7 13 C6.01 12.67 5.02 12.34 4 12 C4.66 9.36 5.32 6.72 6 4 C4.02 4.33 2.04 4.66 0 5 C0 3.35 0 1.7 0 0 Z " fill="#F2904E" transform="translate(219,56)"/>
<path d="M0 0 C0.66 0.33 1.32 0.66 2 1 C2.625 3.0625 2.625 3.0625 3 5 C1.02 5 -0.96 5 -3 5 C-3.33 5.99 -3.66 6.98 -4 8 C-4.66 8 -5.32 8 -6 8 C-6.061875 8.78375 -6.12375 9.5675 -6.1875 10.375 C-6.5896875 11.674375 -6.5896875 11.674375 -7 13 C-9.5625 14.3125 -9.5625 14.3125 -12 15 C-10.4631846 7.99895207 -5.77803245 3.85202163 0 0 Z " fill="#E49755" transform="translate(138,19)"/>
<path d="M0 0 C1.39309232 4.41782016 -0.06404229 6.99457025 -2 11 C-2.81663751 12.76892909 -3.62882206 14.53991801 -4.4375 16.3125 C-5.07558594 17.70855469 -5.07558594 17.70855469 -5.7265625 19.1328125 C-7.60972791 23.37282295 -9.32095746 27.67576196 -11 32 C-11.66 32 -12.32 32 -13 32 C-9.53431252 21.02532299 -5.3995141 10.17600734 0 0 Z " fill="#DA8E5C" transform="translate(96,103)"/>
<path d="M0 0 C6.65050424 -0.24991456 12.56986533 0.26044666 19 2 C19 2.33 19 2.66 19 3 C14.05 2.67 9.1 2.34 4 2 C3.67 5.3 3.34 8.6 3 12 C2.34 12 1.68 12 1 12 C0.46705574 7.9363 0 4.09829169 0 0 Z " fill="#E6945E" transform="translate(226,124)"/>
<path d="M0 0 C0.33 0.66 0.66 1.32 1 2 C0.41632278 3.68943759 -0.24272805 5.35313315 -0.9375 7 C-3.05538167 12.50940352 -3.45646869 17.15466482 -3 23 C-3.33 22.34 -3.66 21.68 -4 21 C-4.66 21 -5.32 21 -6 21 C-6 16.71 -6 12.42 -6 8 C-5.34 7.67 -4.68 7.34 -4 7 C-3.31867549 5.33927151 -2.65257873 3.672233 -2 2 C-1.34 1.34 -0.68 0.68 0 0 Z " fill="#E3915B" transform="translate(44,159)"/>
<path d="M0 0 C2.475 0.495 2.475 0.495 5 1 C5 1.66 5 2.32 5 3 C5.66 3 6.32 3 7 3 C8.09621251 6.28863753 8.00119454 8.65477133 7.83984375 12.0625 C7.86977156 14.32928336 7.86977156 14.32928336 10 17 C9.71234794 20.83536086 8.76165256 22.43933024 6 25 C5.98018066 24.40985107 5.96036133 23.81970215 5.93994141 23.21166992 C5.84465341 20.53649904 5.73499061 17.86210502 5.625 15.1875 C5.5940625 14.25873047 5.563125 13.32996094 5.53125 12.37304688 C5.49257812 11.48037109 5.45390625 10.58769531 5.4140625 9.66796875 C5.3826416 8.84578857 5.3512207 8.0236084 5.31884766 7.17651367 C5.11626378 4.71047063 5.11626378 4.71047063 3 2 C2.01 1.34 1.02 0.68 0 0 Z " fill="#ED914E" transform="translate(245,127)"/>
<path d="M0 0 C0.33 0.99 0.66 1.98 1 3 C-5.625 6 -5.625 6 -9 6 C-8.67 6.99 -8.34 7.98 -8 9 C-9.5159375 8.9690625 -9.5159375 8.9690625 -11.0625 8.9375 C-14.80327257 8.99687734 -18.31244898 9.39795085 -22 10 C-19.19464954 7.19464954 -15.78896328 6.30994793 -12.125 5 C-5.93109806 2.8072294 -5.93109806 2.8072294 0 0 Z " fill="#E4974F" transform="translate(254,31)"/>
<path d="M0 0 C0.33 0.99 0.66 1.98 1 3 C1.66 3 2.32 3 3 3 C2.566875 3.7734375 2.566875 3.7734375 2.125 4.5625 C0.71219973 7.62356725 -0.1248517 10.74944918 -1 14 C-2.65 14.33 -4.3 14.66 -6 15 C-4.36041242 9.76727367 -2.61047965 4.84803364 0 0 Z " fill="#EA9950" transform="translate(69,167)"/>
<path d="M0 0 C-0.75 5.75 -0.75 5.75 -3 8 C-3.33 7.01 -3.66 6.02 -4 5 C-5.32 5 -6.64 5 -8 5 C-8.66 5.66 -9.32 6.32 -10 7 C-12.3828125 6.9765625 -12.3828125 6.9765625 -15.125 6.625 C-16.03507813 6.51414063 -16.94515625 6.40328125 -17.8828125 6.2890625 C-18.93082031 6.14597656 -18.93082031 6.14597656 -20 6 C-20 5.67 -20 5.34 -20 5 C-19.35933594 4.89042969 -18.71867188 4.78085938 -18.05859375 4.66796875 C-13.87636601 3.90133088 -9.95022626 3.1353224 -6.0625 1.375 C-3 0 -3 0 0 0 Z " fill="#D89A63" transform="translate(229,216)"/>
<path d="M0 0 C0.66 0 1.32 0 2 0 C1.55397709 6.69034366 -1.07345542 12.02812122 -4 18 C-5 15 -5 15 -4.5 11.5625 C-4.0656094 8.467467 -3.9694364 6.86267668 -5 4 C-2.525 4.495 -2.525 4.495 0 5 C0 3.35 0 1.7 0 0 Z " fill="#F19653" transform="translate(279,93)"/>
<path d="M0 0 C3.96331637 3.96331637 4.83761955 10.49801551 5.19140625 15.94921875 C5.18804223 18.30739468 5.13786183 20.64613683 5 23 C4.01 22.67 3.02 22.34 2 22 C2 20.68 2 19.36 2 18 C2.66 18 3.32 18 4 18 C3.2884375 16.6078125 3.2884375 16.6078125 2.5625 15.1875 C0.43556786 10.31160838 0.27556105 5.25466418 0 0 Z " fill="#E1945B" transform="translate(277,69)"/>
<path d="M0 0 C0.66 0.66 1.32 1.32 2 2 C1.70762145 6.82424612 -0.56200844 11.86702383 -3 16 C-5.13671875 17.7734375 -5.13671875 17.7734375 -7 19 C-5.17778624 12.38757278 -2.94776396 6.19479329 0 0 Z " fill="#E19054" transform="translate(82,135)"/>
<path d="M0 0 C0.33 0 0.66 0 1 0 C1.34915606 9.15564771 0.27041977 17.95960217 -1 27 C-1.33 27 -1.66 27 -2 27 C-4.125 14.25 -4.125 14.25 -2 10 C-1.34 10 -0.68 10 0 10 C0 6.7 0 3.4 0 0 Z " fill="#E79761" transform="translate(175,155)"/>
<path d="M0 0 C0.99 0.66 1.98 1.32 3 2 C5.27538323 2.66613335 5.27538323 2.66613335 7.6875 3.125 C8.89986328 3.37636719 8.89986328 3.37636719 10.13671875 3.6328125 C10.75160156 3.75398438 11.36648437 3.87515625 12 4 C12 4.99 12 5.98 12 7 C12.99 7.33 13.98 7.66 15 8 C14.01 8.495 14.01 8.495 13 9 C10.23325418 7.92664301 7.56805742 6.79739939 4.875 5.5625 C4.12089844 5.22412109 3.36679688 4.88574219 2.58984375 4.53710938 C0.72340669 3.69839399 -1.1387143 2.85008607 -3 2 C-2.01 1.34 -1.02 0.68 0 0 Z " fill="#EC8E53" transform="translate(145,257)"/>
<path d="M0 0 C0.99 0.33 1.98 0.66 3 1 C3.33 2.65 3.66 4.3 4 6 C4.99 6 5.98 6 7 6 C8 12.625 8 12.625 8 16 C6.84072025 14.46841892 5.69812453 12.92420207 4.5625 11.375 C3.60537109 10.08722656 3.60537109 10.08722656 2.62890625 8.7734375 C0.86822073 5.77562762 0.35742365 3.43328069 0 0 Z " fill="#E5905D" transform="translate(13,188)"/>
<path d="M0 0 C-1.390625 2.015625 -1.390625 2.015625 -4 4 C-7.2832342 4.36750355 -10.46901654 4.05532047 -13.75 3.75 C-14.63816406 3.68425781 -15.52632812 3.61851563 -16.44140625 3.55078125 C-18.62981235 3.38606251 -20.81476178 3.20189011 -23 3 C-23 2.67 -23 2.34 -23 2 C-20.29215006 1.66227261 -17.58383004 1.32969313 -14.875 1 C-14.11445313 0.90460937 -13.35390625 0.80921875 -12.5703125 0.7109375 C-8.35090048 0.20169812 -4.25995656 -0.10888068 0 0 Z " fill="#E89555" transform="translate(183,10)"/>
<path d="M0 0 C0.66 0.33 1.32 0.66 2 1 C0.02 5.29 -1.96 9.58 -4 14 C-5.46132217 11.07735566 -6.34099246 9.07536854 -7 6 C-6.34 6 -5.68 6 -5 6 C-4.34 4.68 -3.68 3.36 -3 2 C-2.01 2 -1.02 2 0 2 C0 1.34 0 0.68 0 0 Z " fill="#EC9456" transform="translate(272,113)"/>
<path d="M0 0 C1.32 0.66 2.64 1.32 4 2 C3.67 2.99 3.34 3.98 3 5 C5.64 6.32 8.28 7.64 11 9 C7.01508155 10.32830615 5.59951452 9.23204404 1.8125 7.5625 C0.72582031 7.08941406 -0.36085937 6.61632812 -1.48046875 6.12890625 C-2.31191406 5.75636719 -3.14335937 5.38382812 -4 5 C-4 4.34 -4 3.68 -4 3 C-2.68 2.34 -1.36 1.68 0 1 C0 0.67 0 0.34 0 0 Z " fill="#ED9557" transform="translate(171,265)"/>
<path d="M0 0 C1.33256282 3.64120668 0.65840377 5.66876554 -0.8125 9.1875 C-1.16957031 10.06792969 -1.52664062 10.94835937 -1.89453125 11.85546875 C-3 14 -3 14 -5 15 C-4.70703125 13.01432292 -4.4140625 11.02864583 -4.12109375 9.04296875 C-3.86095201 6.7974658 -3.86095201 6.7974658 -5 4 C-4.34 3.34 -3.68 2.68 -3 2 C-2.34 2.33 -1.68 2.66 -1 3 C-0.67 2.01 -0.34 1.02 0 0 Z " fill="#E59257" transform="translate(213,250)"/>
<path d="M0 0 C0.66 0 1.32 0 2 0 C0.33333333 5 -1.33333333 10 -3 15 C-3.66 15 -4.32 15 -5 15 C-5 15.99 -5 16.98 -5 18 C-5.66 18 -6.32 18 -7 18 C-6.35534798 13.66695924 -4.81074878 10.13327935 -2.9375 6.1875 C-2.11572266 4.44533203 -2.11572266 4.44533203 -1.27734375 2.66796875 C-0.85582031 1.78753906 -0.43429688 0.90710938 0 0 Z " fill="#E2995F" transform="translate(44,87)"/>
<path d="M0 0 C5.05255964 0.63156995 9.29593201 2.13459373 14 4 C14 4.66 14 5.32 14 6 C14.78375 5.938125 15.5675 5.87625 16.375 5.8125 C17.674375 5.9053125 17.674375 5.9053125 19 6 C19.99 7.485 19.99 7.485 21 9 C16.18080529 8.32512263 12.08116134 6.42034091 7.6875 4.4375 C6.94693359 4.10814453 6.20636719 3.77878906 5.44335938 3.43945312 C3.62688438 2.63082877 1.81316069 1.81602884 0 1 C0 0.67 0 0.34 0 0 Z " fill="#E48F5A" transform="translate(64,225)"/>
<path d="M0 0 C-0.33 0.66 -0.66 1.32 -1 2 C-3.765625 2.81640625 -3.765625 2.81640625 -7.25 3.5625 C-8.95929688 3.93568359 -8.95929688 3.93568359 -10.703125 4.31640625 C-13.4665858 4.88939871 -16.23118639 5.45352363 -19 6 C-13.44471742 1.13912774 -7.21899742 -0.45118734 0 0 Z " fill="#E09461" transform="translate(159,13)"/>
<path d="M0 0 C0.66 0 1.32 0 2 0 C3.39935013 2.79870027 3.25265405 4.90498792 3 8 C1.5625 9.875 1.5625 9.875 0 11 C-0.33 11 -0.66 11 -1 11 C-1.02688151 9.35425434 -1.04634123 7.70838587 -1.0625 6.0625 C-1.07410156 5.14597656 -1.08570313 4.22945312 -1.09765625 3.28515625 C-1 1 -1 1 0 0 Z " fill="#EA985B" transform="translate(200,158)"/>
<path d="M0 0 C1.49153937 3.87800235 0.586684 6.24965601 -1 10 C-2.57618652 12.72877291 -4.25528185 15.37626355 -6 18 C-7 16 -7 16 -6.328125 13.828125 C-5.97234375 12.97734375 -5.6165625 12.1265625 -5.25 11.25 C-4.87875 10.36054687 -4.5075 9.47109375 -4.125 8.5546875 C-2.84316911 5.64386318 -1.48108315 2.81405798 0 0 Z " fill="#E2915B" transform="translate(36,106)"/>
<path d="M0 0 C0.33 0.66 0.66 1.32 1 2 C0.09176973 4.43557572 -0.86828071 6.76195517 -1.9375 9.125 C-2.22818359 9.78371094 -2.51886719 10.44242188 -2.81835938 11.12109375 C-3.53860198 12.75049505 -4.26841143 14.37566132 -5 16 C-6.04449911 12.86650268 -5.93423645 12.01031744 -5 9 C-5.99 9.33 -6.98 9.66 -8 10 C-7.67 8.68 -7.34 7.36 -7 6 C-5.68 6 -4.36 6 -3 6 C-2.01 4.02 -1.02 2.04 0 0 Z " fill="#E68F57" transform="translate(82,70)"/>
<path d="M0 0 C1.1700097 3.91736581 0.69584017 6.97959015 0 11 C-1.32 11.33 -2.64 11.66 -4 12 C-4.33 13.32 -4.66 14.64 -5 16 C-5.33 15.34 -5.66 14.68 -6 14 C-5.09176973 11.56442428 -4.13171929 9.23804483 -3.0625 6.875 C-2.77181641 6.21628906 -2.48113281 5.55757812 -2.18164062 4.87890625 C-1.46139802 3.24950495 -0.73158857 1.62433868 0 0 Z " fill="#E8915C" transform="translate(28,124)"/>
<path d="M0 0 C0.66 0 1.32 0 2 0 C-0.89066059 9.59453303 -0.89066059 9.59453303 -4 13 C-4.66 11.68 -5.32 10.36 -6 9 C-5.566875 8.62875 -5.13375 8.2575 -4.6875 7.875 C-2.53847015 5.48718905 -1.35242016 2.8980432 0 0 Z " fill="#DF9154" transform="translate(91,47)"/>
<path d="M0 0 C-0.45082469 1.46067199 -0.91093537 2.91848032 -1.375 4.375 C-1.63023438 5.18710938 -1.88546875 5.99921875 -2.1484375 6.8359375 C-3 9 -3 9 -5 11 C-6.34351145 3.54961832 -6.34351145 3.54961832 -4.75 1 C-3 0 -3 0 0 0 Z " fill="#E49058" transform="translate(72,96)"/>
<path d="M0 0 C0.66 0.33 1.32 0.66 2 1 C1.18836991 2.95869403 0.37566899 4.91694436 -0.4375 6.875 C-0.88996094 7.96554688 -1.34242187 9.05609375 -1.80859375 10.1796875 C-2.49543463 11.80558624 -3.21065887 13.42131774 -4 15 C-4.66 15 -5.32 15 -6 15 C-4.36041242 9.76727367 -2.61047965 4.84803364 0 0 Z " fill="#DE8F61" transform="translate(68,31)"/>
<path d="M0 0 C2.97 0 5.94 0 9 0 C5 2 5 2 1.5 3.4375 C-1.41273434 4.73782783 -3.58041273 5.96754669 -6 8 C-6 6.68 -6 5.36 -6 4 C-4.35 3.67 -2.7 3.34 -1 3 C-0.67 2.01 -0.34 1.02 0 0 Z " fill="#E19366" transform="translate(196,39)"/>
<path d="M0 0 C0.33 0 0.66 0 1 0 C2.0070238 5.03511899 1.97387813 8.23947038 0 13 C-0.66 13 -1.32 13 -2 13 C-2.19294408 8.17639811 -1.75747614 4.50353262 0 0 Z " fill="#E69657" transform="translate(13,159)"/>
<path d="M0 0 C1.5 1.375 1.5 1.375 3 3 C3 3.66 3 4.32 3 5 C2.34 5 1.68 5 1 5 C1 5.66 1 6.32 1 7 C0.34 7 -0.32 7 -1 7 C-1.33 8.65 -1.66 10.3 -2 12 C-2.66 11.67 -3.32 11.34 -4 11 C-3.52269162 9.5410574 -3.04308958 8.08286504 -2.5625 6.625 C-2.29566406 5.81289062 -2.02882813 5.00078125 -1.75390625 4.1640625 C-1 2 -1 2 0 0 Z " fill="#E49456" transform="translate(101,91)"/>
<path d="M0 0 C0.99 0.33 1.98 0.66 3 1 C1.515 2.485 1.515 2.485 0 4 C1.32 5.65 2.64 7.3 4 9 C3.01 9.33 2.02 9.66 1 10 C0.67 9.01 0.34 8.02 0 7 C-2.00016466 5.79117904 -2.00016466 5.79117904 -4 5 C-3.67 4.01 -3.34 3.02 -3 2 C-2.01 2 -1.02 2 0 2 C0 1.34 0 0.68 0 0 Z " fill="#E38F54" transform="translate(261,42)"/>
<path d="M0 0 C2.05078125 0.03255208 4.1015625 0.06510417 6.15234375 0.09765625 C3.48844686 2.76155314 1.74910866 3.07907702 -1.984375 3.1953125 C-3.15613281 3.18371094 -4.32789063 3.17210937 -5.53515625 3.16015625 C-7.30439453 3.14662109 -7.30439453 3.14662109 -9.109375 3.1328125 C-10.01300781 3.12121094 -10.91664063 3.10960937 -11.84765625 3.09765625 C-11.84765625 2.76765625 -11.84765625 2.43765625 -11.84765625 2.09765625 C-10.89052734 2.00677734 -10.89052734 2.00677734 -9.9140625 1.9140625 C-8.67462891 1.78837891 -8.67462891 1.78837891 -7.41015625 1.66015625 C-6.58644531 1.57894531 -5.76273438 1.49773437 -4.9140625 1.4140625 C-2.62032942 1.06284817 -2.26022767 0.11946235 0 0 Z " fill="#E38E52" transform="translate(193.84765625,272.90234375)"/>
<path d="M0 0 C1.65 0 3.3 0 5 0 C5 0.66 5 1.32 5 2 C6.98 2 8.96 2 11 2 C11 2.66 11 3.32 11 4 C11.99 4.33 12.98 4.66 14 5 C10.08428299 6.305239 8.96107003 5.32239848 5.3125 3.5625 C4.31863281 3.08941406 3.32476562 2.61632812 2.30078125 2.12890625 C1.54152344 1.75636719 0.78226562 1.38382813 0 1 C0 0.67 0 0.34 0 0 Z " fill="#E29454" transform="translate(111,245)"/>
<path d="M0 0 C2.5 1.375 2.5 1.375 5 3 C5 3.66 5 4.32 5 5 C5.99 5 6.98 5 8 5 C8 4.34 8 3.68 8 3 C9.98 3 11.96 3 14 3 C11.61223142 5.20409407 10.26843543 5.96644557 7 6.375 C3.69628232 5.96203529 2.29675779 5.38509462 0 3 C0 2.01 0 1.02 0 0 Z " fill="#DE8D56" transform="translate(205,58)"/>
<path d="M0 0 C1.23220137 4.9288055 0.19085848 6.53714012 -2 11 C-2.99 12.485 -2.99 12.485 -4 14 C-4.66 13.67 -5.32 13.34 -6 13 C-4.02 8.71 -2.04 4.42 0 0 Z " fill="#DF9958" transform="translate(96,103)"/>
<path d="M0 0 C0.66 0 1.32 0 2 0 C2.33 1.32 2.66 2.64 3 4 C1.68 4.33 0.36 4.66 -1 5 C-1.66 7.64 -2.32 10.28 -3 13 C-3.66 13 -4.32 13 -5 13 C-4.54554036 11.58208592 -4.08625056 10.16571954 -3.625 8.75 C-3.24214844 7.56664063 -3.24214844 7.56664063 -2.8515625 6.359375 C-2.04826333 4.13372042 -1.10288338 2.09068328 0 0 Z " fill="#E79952" transform="translate(50,73)"/>
<path d="M0 0 C0.33 0 0.66 0 1 0 C1.3152595 5.98993047 0.68219822 9.63560356 -2 15 C-2.97608217 12.07175348 -3.08226668 10.04386724 -3 7 C-2.34 6.67 -1.68 6.34 -1 6 C-0.34227572 2.97065509 -0.34227572 2.97065509 0 0 Z " fill="#E69059" transform="translate(221,180)"/>
<path d="M0 0 C1.65 0 3.3 0 5 0 C5.74926071 3.66305234 6.2380014 6.42355152 5 10 C4.01 9.67 3.02 9.34 2 9 C2.66 6.36 3.32 3.72 4 1 C2.68 1.33 1.36 1.66 0 2 C0 1.34 0 0.68 0 0 Z " fill="#E68C59" transform="translate(221,59)"/>
<path d="M0 0 C3.875 1.75 3.875 1.75 5 4 C5.06950541 5.54023996 5.08452357 7.08334988 5.0625 8.625 C5.05347656 9.44226563 5.04445312 10.25953125 5.03515625 11.1015625 C5.02355469 11.72804687 5.01195312 12.35453125 5 13 C4.67 13 4.34 13 4 13 C3.89042969 12.38511719 3.78085938 11.77023438 3.66796875 11.13671875 C3.43013672 9.92435547 3.43013672 9.92435547 3.1875 8.6875 C3.03667969 7.88699219 2.88585937 7.08648437 2.73046875 6.26171875 C1.92427764 3.76554413 0.97947998 2.67577894 -1 1 C-0.67 0.67 -0.34 0.34 0 0 Z " fill="#D9965B" transform="translate(197,124)"/>
<path d="M0 0 C0.66 0 1.32 0 2 0 C1.57781184 1.6498275 1.13675575 3.29483665 0.6875 4.9375 C0.44386719 5.85402344 0.20023437 6.77054688 -0.05078125 7.71484375 C-0.36402344 8.46894531 -0.67726563 9.22304687 -1 10 C-1.99 10.33 -2.98 10.66 -4 11 C-3.5247412 9.35303396 -3.04468109 7.70745272 -2.5625 6.0625 C-2.29566406 5.14597656 -2.02882813 4.22945312 -1.75390625 3.28515625 C-1 1 -1 1 0 0 Z " fill="#DD9360" transform="translate(74,155)"/>
<path d="M0 0 C1 2 1 2 0.22265625 4.3828125 C-0.16019531 5.28773438 -0.54304688 6.19265625 -0.9375 7.125 C-1.31777344 8.03507813 -1.69804687 8.94515625 -2.08984375 9.8828125 C-2.39019531 10.58148438 -2.69054687 11.28015625 -3 12 C-3.33 12 -3.66 12 -4 12 C-3.67 9.03 -3.34 6.06 -3 3 C-2.34 3 -1.68 3 -1 3 C-0.67 2.01 -0.34 1.02 0 0 Z " fill="#E28F54" transform="translate(260,142)"/>
<path d="M0 0 C1.9375 0.75 1.9375 0.75 4 2 C4.75 4.125 4.75 4.125 5 6 C3.35 5.67 1.7 5.34 0 5 C-0.33 4.01 -0.66 3.02 -1 2 C-0.67 1.34 -0.34 0.68 0 0 Z " fill="#F88E41" transform="translate(214,55)"/>
<path d="M0 0 C1.36125 0.12375 1.36125 0.12375 2.75 0.25 C-0.45336822 3.08374881 -3.03087253 3.7705537 -7.25 4.25 C-4.83923194 1.28290085 -3.90322061 0.30024774 0 0 Z " fill="#E68E58" transform="translate(229.25,34.75)"/>
<path d="M0 0 C2.64 1.65 5.28 3.3 8 5 C7.01 5.495 7.01 5.495 6 6 C3.8359375 5.22265625 3.8359375 5.22265625 1.375 4.0625 C0.55773437 3.68222656 -0.25953125 3.30195313 -1.1015625 2.91015625 C-1.72804687 2.60980469 -2.35453125 2.30945313 -3 2 C-2.01 1.34 -1.02 0.68 0 0 Z " fill="#DD9259" transform="translate(145,257)"/>
<path d="M0 0 C1.09898702 3.29696105 0.87124444 4.40494903 0.0625 7.6875 C-0.22947266 8.89986328 -0.22947266 8.89986328 -0.52734375 10.13671875 C-0.68332031 10.75160156 -0.83929688 11.36648437 -1 12 C-1.66 11.01 -2.32 10.02 -3 9 C-2.27231556 5.80938359 -1.46534977 2.93069953 0 0 Z " fill="#EF9D4D" transform="translate(216,241)"/>
<path d="M0 0 C3.46941546 0.45822468 6.67395049 0.89131683 10 2 C9.67 2.99 9.34 3.98 9 5 C4.545 3.02 4.545 3.02 0 1 C0 0.67 0 0.34 0 0 Z " fill="#E79A53" transform="translate(38,214)"/>
<path d="M0 0 C1.31625194 2.63250388 0.74813658 3.80179056 0.0625 6.625 C-0.13214844 7.44226563 -0.32679687 8.25953125 -0.52734375 9.1015625 C-0.68332031 9.72804687 -0.83929688 10.35453125 -1 11 C-1.33 11 -1.66 11 -2 11 C-2.96891192 5.62694301 -2.96891192 5.62694301 -3 3 C-1.5625 1 -1.5625 1 0 0 Z " fill="#F09154" transform="translate(57,124)"/>
<path d="M0 0 C1 3 1 3 0.22265625 5.04296875 C-0.16019531 5.75066406 -0.54304688 6.45835938 -0.9375 7.1875 C-1.31777344 7.90292969 -1.69804687 8.61835937 -2.08984375 9.35546875 C-2.54037109 10.16951172 -2.54037109 10.16951172 -3 11 C-4.15941038 7.52176885 -3.70820884 5.54104422 -3 2 C-2.01 2 -1.02 2 0 2 C0 1.34 0 0.68 0 0 Z " fill="#DC9959" transform="translate(278,100)"/>
<path d="M0 0 C0.66 0 1.32 0 2 0 C2 0.99 2 1.98 2 3 C3.32 3 4.64 3 6 3 C6 3.66 6 4.32 6 5 C1.545 4.01 1.545 4.01 -3 3 C-2.01 2.01 -1.02 1.02 0 0 Z " fill="#E8966B" transform="translate(210,37)"/>
<path d="M0 0 C0 3 0 3 -1.875 5.1875 C-4 7 -4 7 -6 7 C-4.77065985 3.31197956 -3.06140622 2.27643027 0 0 Z " fill="#E19056" transform="translate(206,266)"/>
<path d="M0 0 C1.98 0.66 3.96 1.32 6 2 C6 2.99 6 3.98 6 5 C4.68 5 3.36 5 2 5 C1.34 3.35 0.68 1.7 0 0 Z " fill="#F68D46" transform="translate(20,199)"/>
</svg>
