<svg width="21" height="18" viewBox="0 0 21 18" fill="none" xmlns="http://www.w3.org/2000/svg">
<path d="M10.5784 2.91461L10.0834 3.39121C10.1476 3.45774 10.2244 3.51066 10.3095 3.54681C10.3945 3.58295 10.486 3.60158 10.5784 3.60158C10.6708 3.60158 10.7622 3.58295 10.8473 3.54681C10.9323 3.51066 11.0092 3.45774 11.0733 3.39121L10.5784 2.91461ZM8.21917 14.6666C6.82967 13.5714 5.31095 12.5017 4.10568 11.1452C2.92516 9.81441 2.10026 8.26269 2.10026 6.24811H0.725433C0.725433 8.69164 1.74281 10.5559 3.07822 12.0581C4.38889 13.5338 6.06069 14.7161 7.36769 15.7463L8.21917 14.6666ZM2.10026 6.24811C2.10026 4.27752 3.21387 2.62406 4.73444 1.9284C6.21192 1.2529 8.19717 1.43162 10.0834 3.39121L11.0733 2.43892C8.83692 0.113622 6.23758 -0.270414 4.16251 0.678218C2.13326 1.60669 0.725433 3.76242 0.725433 6.24811H2.10026ZM7.36769 15.7463C7.83788 16.1166 8.34199 16.5107 8.85251 16.8095C9.36303 17.1083 9.94595 17.3503 10.5784 17.3503V15.9755C10.2942 15.9755 9.96062 15.8655 9.54634 15.6226C9.13114 15.3806 8.70127 15.047 8.21917 14.6666L7.36769 15.7463ZM13.7891 15.7463C15.0961 14.7152 16.7679 13.5347 18.0785 12.0581C19.4139 10.555 20.4313 8.69164 20.4313 6.24811H19.0565C19.0565 8.26269 18.2316 9.81441 17.0511 11.1452C15.8458 12.5017 14.3271 13.5714 12.9376 14.6666L13.7891 15.7463ZM20.4313 6.24811C20.4313 3.76242 19.0244 1.60669 16.9942 0.678218C14.9192 -0.270414 12.3217 0.113622 10.0834 2.438L11.0733 3.39121C12.9596 1.43254 14.9448 1.2529 16.4223 1.9284C17.9429 2.62406 19.0565 4.2766 19.0565 6.24811H20.4313ZM12.9376 14.6666C12.4555 15.047 12.0256 15.3806 11.6104 15.6226C11.1952 15.8646 10.8625 15.9755 10.5784 15.9755V17.3503C11.2108 17.3503 11.7937 17.1074 12.3042 16.8095C12.8157 16.5107 13.3189 16.1166 13.7891 15.7463L12.9376 14.6666Z" fill="#1F2937"/>
</svg>
