<svg width="16" height="16" viewBox="0 0 16 16" fill="none" xmlns="http://www.w3.org/2000/svg">
<path d="M13.3333 6.66683C13.3333 10.6668 7.99999 14.6668 7.99999 14.6668C7.99999 14.6668 2.66666 10.6668 2.66666 6.66683C2.66666 5.25234 3.22856 3.89579 4.22875 2.89559C5.22895 1.8954 6.5855 1.3335 7.99999 1.3335C9.41448 1.3335 10.771 1.8954 11.7712 2.89559C12.7714 3.89579 13.3333 5.25234 13.3333 6.66683Z" stroke="black" stroke-linecap="round" stroke-linejoin="round"/>
<path d="M8 8.6665C9.10457 8.6665 10 7.77107 10 6.6665C10 5.56193 9.10457 4.6665 8 4.6665C6.89543 4.6665 6 5.56193 6 6.6665C6 7.77107 6.89543 8.6665 8 8.6665Z" stroke="black" stroke-linecap="round" stroke-linejoin="round"/>
</svg>
