<svg width="20" height="19" viewBox="0 0 20 19" fill="none" xmlns="http://www.w3.org/2000/svg">
<path fill-rule="evenodd" clip-rule="evenodd" d="M0.882355 9.04102C0.882355 4.34467 4.68981 0.539062 9.38523 0.539062C14.0807 0.539062 17.8881 4.34468 17.8881 9.0401C17.892 11.0582 17.1741 13.0112 15.864 14.5463L19.0638 17.7452C19.1297 17.8088 19.1822 17.8848 19.2184 17.9689C19.2546 18.053 19.2736 18.1435 19.2745 18.235C19.2753 18.3266 19.2579 18.4173 19.2233 18.5021C19.1887 18.5868 19.1375 18.6638 19.0728 18.7286C19.0081 18.7934 18.9312 18.8446 18.8465 18.8793C18.7617 18.914 18.671 18.9315 18.5794 18.9307C18.4879 18.93 18.3974 18.911 18.3133 18.8749C18.2292 18.8388 18.1531 18.7863 18.0894 18.7205L14.8887 15.5207C13.3538 16.8288 11.4019 17.5454 9.38523 17.5411C4.68981 17.5411 0.882355 13.7364 0.882355 9.04102ZM9.38523 1.91791C8.44031 1.90273 7.5018 2.07573 6.62439 2.42684C5.74699 2.77795 4.94822 3.30014 4.27462 3.963C3.60102 4.62587 3.06606 5.41614 2.7009 6.2878C2.33574 7.15945 2.14769 8.09505 2.14769 9.0401C2.14769 9.98515 2.33574 10.9208 2.7009 11.7924C3.06606 12.6641 3.60102 13.4543 4.27462 14.1172C4.94822 14.7801 5.74699 15.3023 6.62439 15.6534C7.5018 16.0045 8.44031 16.1775 9.38523 16.1623C10.3302 16.1775 11.2687 16.0045 12.1461 15.6534C13.0235 15.3023 13.8222 14.7801 14.4958 14.1172C15.1694 13.4543 15.7044 12.6641 16.0696 11.7924C16.4347 10.9208 16.6228 9.98515 16.6228 9.0401C16.6228 8.09505 16.4347 7.15945 16.0696 6.2878C15.7044 5.41614 15.1694 4.62587 14.4958 3.963C13.8222 3.30014 13.0235 2.77795 12.1461 2.42684C11.2687 2.07573 10.3302 1.90273 9.38523 1.91791Z" fill="#1F2937"/>
</svg>
