<svg width="17" height="19" viewBox="0 0 17 19" fill="none" xmlns="http://www.w3.org/2000/svg">
<path fill-rule="evenodd" clip-rule="evenodd" d="M8.39131 2.09391C7.90931 2.09391 7.44705 2.28539 7.10623 2.62621C6.7654 2.96704 6.57393 3.42929 6.57393 3.91129V4.1213C7.02383 4.11322 7.51735 4.11322 8.06014 4.11322H8.72328C9.26446 4.11322 9.75879 4.11322 10.2095 4.1213V3.91129C10.2095 3.67256 10.1625 3.43617 10.0711 3.21562C9.9797 2.99508 9.84576 2.79469 9.67691 2.62592C9.50807 2.45715 9.30763 2.3233 9.08704 2.23202C8.86645 2.14074 8.63004 2.09381 8.39131 2.09391ZM11.4203 4.17623V3.91129C11.4203 3.10796 11.1012 2.33753 10.5331 1.76949C9.96507 1.20145 9.19464 0.882324 8.39131 0.882324C7.58798 0.882324 6.81755 1.20145 6.24951 1.76949C5.68146 2.33753 5.36234 3.10796 5.36234 3.91129V4.17623C5.24711 4.18592 5.13564 4.1975 5.02794 4.21096C4.21214 4.31192 3.54011 4.52355 2.96824 4.99768C2.39638 5.47182 2.06521 6.09377 1.81643 6.87726C1.57411 7.63652 1.39157 8.61144 1.16217 9.83838L1.14521 9.92723C0.820505 11.6582 0.565264 13.0224 0.517608 14.0975C0.469144 15.2001 0.63392 16.1128 1.25587 16.8615C1.87782 17.6111 2.74451 17.9407 3.83655 18.0966C4.90275 18.2484 6.28961 18.2484 8.05126 18.2484H8.73378C10.4946 18.2484 11.8823 18.2484 12.9477 18.0966C14.0397 17.9407 14.9072 17.6111 15.5292 16.8615C16.1511 16.112 16.3143 15.2001 16.2666 14.0975C16.2198 13.0224 15.9637 11.6582 15.639 9.92723L15.6229 9.83838C15.3927 8.61144 15.2093 7.63571 14.9686 6.87726C14.7182 6.09377 14.3871 5.47182 13.8152 4.99768C13.2441 4.52355 12.5713 4.31112 11.7555 4.21096C11.6442 4.19727 11.5328 4.18569 11.4211 4.17623M5.17657 5.41366C4.48596 5.49847 4.06837 5.65921 3.74205 5.9306C3.41653 6.20039 3.18148 6.58082 2.96986 7.24477C2.7542 7.92326 2.58377 8.8263 2.34468 10.1017C2.00867 11.8924 1.77039 13.1711 1.72758 14.1508C1.68558 15.112 1.84066 15.6693 2.18717 16.0886C2.5345 16.5061 3.05386 16.7606 4.00698 16.8963C4.97625 17.0352 6.2783 17.0368 8.10053 17.0368H8.68209C10.5051 17.0368 11.8056 17.0352 12.7756 16.8971C13.7288 16.7606 14.2481 16.5061 14.5954 16.0886C14.9428 15.6702 15.097 15.1128 15.0558 14.15C15.0122 13.1719 14.774 11.8924 14.4379 10.1017C14.1989 8.82549 14.0292 7.92407 13.8128 7.24477C13.6011 6.58082 13.3669 6.20039 13.0406 5.9298C12.7143 5.65921 12.2975 5.49847 11.6061 5.41285C10.8985 5.32562 9.9801 5.32481 8.68209 5.32481H8.10053C6.80251 5.32481 5.88413 5.32562 5.17657 5.41366Z" fill="#1F2937"/>
</svg>
