<svg width="17" height="18" viewBox="0 0 17 18" fill="none" xmlns="http://www.w3.org/2000/svg">
<path d="M16.4492 1.86538C15.6848 2.59641 14.9211 3.3287 14.1584 4.06225C13.0906 5.08695 12.0224 6.11145 10.9536 7.13574C10.9005 7.18079 10.8447 7.22264 10.7866 7.26106C10.885 7.33312 10.9458 7.37917 11.0078 7.42335C11.9258 8.08128 12.8466 8.73921 13.7592 9.40404C13.8649 9.48477 13.9437 9.59564 13.9851 9.72204C14.0518 9.94135 13.9488 10.1237 13.7235 10.2481C13.086 10.5994 12.4473 10.949 11.8073 11.297L2.63826 16.3004C2.28735 16.5339 1.92099 16.7432 1.5417 16.927C1.49291 16.9509 1.44163 16.9693 1.38881 16.9819C1.34094 16.9937 1.29182 16.9998 1.2425 17C1.13389 17.0019 1.0279 16.9666 0.942042 16.9001C0.936403 16.896 0.93139 16.8913 0.926064 16.8866C0.924526 16.8855 0.923061 16.8842 0.921678 16.8829L0.903506 16.8656L0.89348 16.8531C0.820776 16.772 0.775974 16.6698 0.765653 16.5614C0.763451 16.5427 0.7623 16.5239 0.762207 16.505C0.762185 16.4637 0.768202 16.4227 0.780065 16.3831C0.812159 16.2872 0.869004 16.2014 0.944862 16.1344C1.64415 15.466 2.34271 14.7961 3.04054 14.1246C4.44956 12.7611 5.85942 11.3983 7.27011 10.0363C7.32388 9.99186 7.38062 9.95114 7.43992 9.91441C7.17643 9.72423 6.9543 9.56351 6.73123 9.40373L4.2433 7.61791C3.85418 7.33844 3.88802 6.93648 4.31849 6.72563L15.8511 1.07429C16.2246 0.891323 16.5839 1.05894 16.6284 1.43866C16.6491 1.61286 16.5733 1.74695 16.4492 1.86538Z" fill="white" stroke="white" stroke-width="0.0313302"/>
</svg>
