<svg width="56" height="56" viewBox="0 0 56 56" fill="none" xmlns="http://www.w3.org/2000/svg">
<rect width="56" height="56" rx="28" fill="#FFEDD5"/>
<path d="M19.8 25.3L16 36L26.7 32.21" stroke="black" stroke-linecap="round" stroke-linejoin="round"/>
<path d="M18 17H18.01" stroke="black" stroke-linecap="round" stroke-linejoin="round"/>
<path d="M36 22H36.01" stroke="black" stroke-linecap="round" stroke-linejoin="round"/>
<path d="M29 16H29.01" stroke="black" stroke-linecap="round" stroke-linejoin="round"/>
<path d="M36 34H36.01" stroke="black" stroke-linecap="round" stroke-linejoin="round"/>
<path d="M36 16L33.76 16.75C33.1224 16.9624 32.5783 17.3896 32.2208 17.9587C31.8633 18.5278 31.7146 19.2034 31.8 19.87C31.9 20.73 31.23 21.5 30.35 21.5H29.97C29.11 21.5 28.37 22.1 28.21 22.94L28 24" stroke="black" stroke-linecap="round" stroke-linejoin="round"/>
<path d="M36 27.0001L35.18 26.6701C34.32 26.3301 33.36 26.8701 33.2 27.7801C33.09 28.4801 32.48 29.0001 31.77 29.0001H31" stroke="black" stroke-linecap="round" stroke-linejoin="round"/>
<path d="M25 16L25.33 16.82C25.67 17.68 25.13 18.64 24.22 18.8C23.52 18.9 23 19.52 23 20.23V21" stroke="black" stroke-linecap="round" stroke-linejoin="round"/>
<path d="M24.9995 27C26.9295 28.93 27.8295 31.17 26.9995 32C26.1695 32.83 23.9295 31.93 21.9995 30C20.0695 28.07 19.1695 25.83 19.9995 25C20.8295 24.17 23.0695 25.07 24.9995 27Z" stroke="black" stroke-linecap="round" stroke-linejoin="round"/>
</svg>
